<?xml version="1.0" encoding="UTF-8" standalone="no"?>
<!-- Created with Inkscape (http://www.inkscape.org/) -->

<svg
   xmlns:dc="http://purl.org/dc/elements/1.1/"
   xmlns:cc="http://creativecommons.org/ns#"
   xmlns:rdf="http://www.w3.org/1999/02/22-rdf-syntax-ns#"
   xmlns:svg="http://www.w3.org/2000/svg"
   xmlns="http://www.w3.org/2000/svg"
   xmlns:sodipodi="http://sodipodi.sourceforge.net/DTD/sodipodi-0.dtd"
   xmlns:inkscape="http://www.inkscape.org/namespaces/inkscape"
   id="svg2"
   version="1.1"
   inkscape:version="0.91 r13725"
   xml:space="preserve"
   width="900"
   height="506.25"
   viewBox="0 0 900 506.25"
   sodipodi:docname="启迪睿视logo源文件 (复件).ai.svg"><metadata
     id="metadata8"><rdf:RDF><cc:Work
         rdf:about=""><dc:format>image/svg+xml</dc:format><dc:type
           rdf:resource="http://purl.org/dc/dcmitype/StillImage" /><dc:title></dc:title></cc:Work></rdf:RDF></metadata><defs
     id="defs6"><clipPath
       clipPathUnits="userSpaceOnUse"
       id="clipPath62"><path
         d="M 0,405 720,405 720,0 0,0 0,405 Z"
         id="path64"
         inkscape:connector-curvature="0" /></clipPath></defs><sodipodi:namedview
     pagecolor="#ffffff"
     bordercolor="#666666"
     borderopacity="1"
     objecttolerance="10"
     gridtolerance="10"
     guidetolerance="10"
     inkscape:pageopacity="0"
     inkscape:pageshadow="2"
     inkscape:window-width="1855"
     inkscape:window-height="1056"
     id="namedview4"
     showgrid="false"
     inkscape:zoom="0.46617284"
     inkscape:cx="1163.3509"
     inkscape:cy="147.4862"
     inkscape:window-x="65"
     inkscape:window-y="24"
     inkscape:window-maximized="1"
     inkscape:current-layer="g10" /><g
     id="g10"
     inkscape:groupmode="layer"
     inkscape:label="启迪睿视logo源文件 (复件)"
     transform="matrix(1.25,0,0,-1.25,0,506.25)"><g
       id="g14"
       transform="matrix(1.8198813,0,0,1.9812462,175.47418,162.97373)"><path
         d="m 0,0 27.839,0 -0.815,-5.779 -27.996,0 L 0,0 Z m 34.41,-9.705 1.916,13.631 -17.086,0 0.259,1.851 -7.89,0 -0.259,-1.851 -18.798,0 -5.822,-33.144 8.17,0 3.405,19.513 36.105,0 z"
         style="fill:#35414f;fill-opacity:1;fill-rule:nonzero;stroke:none"
         id="path16"
         inkscape:connector-curvature="0" /></g><g
       id="g18"
       transform="matrix(1.8198813,0,0,1.9812462,219.57974,112.86405)"><path
         d="m 0,0 -18.047,0 1.17,8.332 18.05,0 L 0,0 Z m -24.261,12.258 -2.275,-16.184 33.922,0 2.273,16.184 -33.92,0 z"
         style="fill:#35414f;fill-opacity:1;fill-rule:nonzero;stroke:none"
         id="path20"
         inkscape:connector-curvature="0" /></g><g
       id="g22"
       transform="matrix(1.8198813,0,0,1.9812462,265.53884,164.66472)"><path
         d="m 0,0 0.025,5.025 -8.176,0 L -8.18,0 0,0 Z"
         style="fill:#35414f;fill-opacity:1;fill-rule:nonzero;stroke:none"
         id="path24"
         inkscape:connector-curvature="0" /></g><g
       id="g26"
       transform="matrix(1.8198813,0,0,1.9812462,258.86715,112.4674)"><path
         d="m 0,0 3.354,23.864 -11.059,0 -0.553,-3.923 3.125,0 -2.42,-17.059 -3.938,-6.808 8.41,0 1.536,2.755 1.242,-2.755 35.109,0 L 35.356,0 0,0 Z"
         style="fill:#35414f;fill-opacity:1;fill-rule:nonzero;stroke:none"
         id="path28"
         inkscape:connector-curvature="0" /></g><g
       id="g30"
       transform="matrix(1.8198813,0,0,1.9812462,303.1183,138.98579)"><path
         d="m 0,0 3.614,0 -1.009,-7.182 -3.613,0 L 0,0 Z m 1.555,11.057 3.613,0 -1.002,-7.131 -3.613,0 1.002,7.131 z m -8.938,-7.131 -3.613,0 1.002,7.131 3.613,0 -1.002,-7.131 z m -1.56,-11.108 -3.614,0 1.008,7.182 3.613,0 -1.007,-7.182 z m -8.436,22.166 -3.667,-26.091 31.035,0 3.667,26.091 -11.55,0 0.43,3.05 -7.936,0 -0.43,-3.05 -11.549,0 z"
         style="fill:#35414f;fill-opacity:1;fill-rule:nonzero;stroke:none"
         id="path32"
         inkscape:connector-curvature="0" /></g><g
       id="g34"
       transform="matrix(1.8198813,0,0,1.9812462,399.12231,151.12488)"><path
         d="m 0,0 -0.2,-1.432 4.342,-1.843 4.754,0 0.203,1.442 L 5.221,0 0,0 Z"
         style="fill:#35414f;fill-opacity:1;fill-rule:nonzero;stroke:none"
         id="path36"
         inkscape:connector-curvature="0" /></g><g
       id="g38"
       transform="matrix(1.8198813,0,0,1.9812462,391.62604,128.42575)"><path
         d="m 0,0 -22.357,0 0.228,1.63 22.358,0 L 0,0 Z m -0.611,-4.353 -22.359,0 0.237,1.679 22.357,0 -0.235,-1.679 z m -0.608,-4.301 -22.355,0 0.236,1.678 22.359,0 -0.24,-1.678 z m -9.213,17.607 0.102,-0.04 10.455,-4.159 -22.348,0 11.791,4.199 z m 22.225,-5.424 0.236,1.679 -15.723,6.227 6.328,0 0.376,2.673 -24.552,0 -0.376,-2.673 5.547,0 -17.502,-6.255 -0.231,-1.651 4.307,0 -2.151,-15.309 38.228,0 2.154,15.309 3.359,0 z"
         style="fill:#35414f;fill-opacity:1;fill-rule:nonzero;stroke:none"
         id="path40"
         inkscape:connector-curvature="0" /></g><g
       id="g42"
       transform="matrix(1.8198813,0,0,1.9812462,334.70325,163.91403)"><path
         d="m 0,0 -0.741,-5.276 7.936,0 0.372,2.651 29.219,0 -0.373,-2.651 7.939,0 0.741,5.276 -18.98,0 0.249,1.777 17.606,0 0.376,2.677 -17.606,0 0.135,0.95 -7.89,0 L 18.224,0 0,0 Z"
         style="fill:#35414f;fill-opacity:1;fill-rule:nonzero;stroke:none"
         id="path44"
         inkscape:connector-curvature="0" /></g><g
       id="g46"
       transform="matrix(1.8198813,0,0,1.9812462,348.51578,148.34837)"><path
         d="m 0,0 0.197,1.401 -5.148,0 -4.471,-1.866 -0.199,-1.409 4.68,0 L 0,0 Z"
         style="fill:#35414f;fill-opacity:1;fill-rule:nonzero;stroke:none"
         id="path48"
         inkscape:connector-curvature="0" /></g><g
       id="g50"
       transform="matrix(1.8198813,0,0,1.9812462,449.84623,126.39794)"><path
         d="m 0,0 6.896,0 2.758,19.611 13.033,0 -0.046,-0.328 -2.504,-17.81 -2.712,0 0.046,0.33 2.112,15.03 -7.653,0 -1.948,-13.847 -3.169,-3.583 0.005,0.034 -9.068,-10.245 8.743,0 6.617,7.42 -1.044,-7.42 14.376,0 0.551,3.926 -7.194,0 0.968,6.882 6.104,0 3.309,23.537 -26.871,0 L 0,0 Z"
         style="fill:#35414f;fill-opacity:1;fill-rule:nonzero;stroke:none"
         id="path52"
         inkscape:connector-curvature="0" /></g><g
       id="g54"
       transform="matrix(1.8198813,0,0,1.9812462,439.70185,139.30695)"><path
         d="m 0,0 0.008,-0.002 0.282,0.01 0.183,-7.123 3.918,0 -0.199,9.027 -3.21,0 4.892,6.928 0.756,5.381 -4.685,0 0.513,3.651 -7.56,0 -0.512,-3.651 -4.213,0 -0.551,-3.924 9.027,0 -11.196,-16.013 4.368,0 -1.623,-11.556 7.082,0 2.433,17.264 L 0,0 Z"
         style="fill:#35414f;fill-opacity:1;fill-rule:nonzero;stroke:none"
         id="path56"
         inkscape:connector-curvature="0" /></g><g
       id="g58"
       transform="matrix(1.8198813,0,0,1.9812462,-291.17611,-221.72641)"><g
         id="g60"
         clip-path="url(#clipPath62)"
         transform="translate(-1.7161017,8.5805085)"><g
           id="g66"
           transform="translate(279.1772,216.4795)"><path
             d="m 0,0 -12.438,0 0.615,2.885 c -3.632,-2.217 -8.345,-3.497 -14.561,-3.497 -7.672,0 -9.727,4.433 -8.835,8.646 0.583,2.748 2.027,9.561 2.961,13.975 0.5,2.358 2.019,4.032 4.851,4.032 l 8.415,0 c 0,0 -1.884,-8.943 -3.469,-16.473 -1.455,-6.912 5.419,-8.494 10.965,-5.144 0,0 3.562,16.734 3.989,18.727 0.43,1.994 1.656,2.89 3.781,2.89 l 9.251,0 L 0,0 Z"
             style="fill:#35414f;fill-opacity:1;fill-rule:nonzero;stroke:none"
             id="path68"
             inkscape:connector-curvature="0" /></g><g
           id="g70"
           transform="translate(480.5249,242.5205)"><path
             d="m 0,0 12.438,0 -0.615,-2.885 c 3.631,2.214 8.344,3.497 14.561,3.497 7.671,0 9.725,-4.433 8.834,-8.646 -0.581,-2.748 -2.027,-9.561 -2.961,-13.975 -0.5,-2.358 -2.019,-4.032 -4.85,-4.032 l -8.416,0 c 0,0 1.882,8.943 3.469,16.473 1.455,6.912 -5.419,8.494 -10.965,5.144 0,0 -3.559,-16.734 -3.989,-18.727 -0.427,-1.994 -1.655,-2.89 -3.781,-2.89 l -9.251,0 L 0,0 Z"
             style="fill:#35414f;fill-opacity:1;fill-rule:nonzero;stroke:none"
             id="path72"
             inkscape:connector-curvature="0" /></g><g
           id="g74"
           transform="translate(319.8521,234.9941)"><path
             d="m 0,0 c -1.272,0.762 -6.308,2.39 -10.886,2.39 -7.018,0 -9.766,-0.763 -9.766,-2.136 0,-1.12 2.849,-1.78 6.409,-2.342 6.612,-1.32 13.53,-2.593 13.53,-6.765 0,-0.253 -0.051,-0.558 -0.102,-0.812 -1.069,-5.648 -6.816,-9.462 -19.482,-9.462 -8.951,0 -15.665,1.78 -16.582,2.342 l 1.273,5.847 c 1.323,-0.66 6.917,-2.491 11.495,-2.491 6.461,0 10.173,1.068 10.173,2.39 0,0.66 -1.222,1.12 -3.001,1.577 -6.868,1.78 -16.684,2.392 -16.684,7.631 0,0.254 0.051,0.508 0.102,0.812 1.424,6.308 8.953,9.158 19.125,9.158 C -5.086,8.139 0.609,6 1.219,5.797 L 0,0 Z"
             style="fill:#35414f;fill-opacity:1;fill-rule:nonzero;stroke:none"
             id="path76"
             inkscape:connector-curvature="0" /></g><g
           id="g78"
           transform="translate(416.6958,234.9941)"><path
             d="m 0,0 c -1.272,0.762 -6.308,2.39 -10.887,2.39 -7.018,0 -9.766,-0.763 -9.766,-2.136 0,-1.12 2.849,-1.78 6.41,-2.342 6.612,-1.32 13.529,-2.593 13.529,-6.765 0,-0.253 -0.051,-0.558 -0.101,-0.812 -1.067,-5.648 -6.816,-9.462 -19.483,-9.462 -8.951,0 -15.665,1.78 -16.581,2.342 l 1.272,5.847 c 1.323,-0.66 6.919,-2.491 11.496,-2.491 6.46,0 10.173,1.068 10.173,2.39 0,0.66 -1.222,1.12 -3.002,1.577 -6.864,1.78 -16.684,2.392 -16.684,7.631 0,0.254 0.054,0.508 0.104,0.812 1.422,6.308 8.952,9.158 19.124,9.158 C -5.087,8.139 0.609,6 1.219,5.797 L 0,0 Z"
             style="fill:#35414f;fill-opacity:1;fill-rule:nonzero;stroke:none"
             id="path80"
             inkscape:connector-curvature="0" /></g><g
           id="g82"
           transform="translate(462.9722,232.1445)"><path
             d="m 0,0 c 0,3.307 -2.389,4.884 -6.711,4.884 -6.26,0 -9.668,-3.561 -9.668,-9.564 0,-3.662 2.139,-5.493 6.463,-5.493 5.138,0 8.443,2.39 9.662,8.19 C -0.102,-1.271 0,-0.609 0,0 m -11.188,-16.277 c -12.003,0 -18.108,3.459 -18.108,10.734 0,1.066 0.152,2.288 0.457,3.56 2.136,9.766 11.394,12.971 23.448,12.971 11.039,0 18.261,-2.9 18.261,-10.122 0,-0.866 -0.101,-1.833 -0.305,-2.849 -2.288,-10.426 -9.817,-14.294 -23.753,-14.294"
             style="fill:#35414f;fill-opacity:1;fill-rule:nonzero;stroke:none"
             id="path84"
             inkscape:connector-curvature="0" /></g><g
           id="g86"
           transform="translate(368.7749,241.3066)"><path
             d="m 0,0 -5.284,-24.827 9.268,0 c 2.255,0 3.337,0.682 3.78,2.778 C 8.205,-19.957 12.415,0 12.415,0 L 0,0 Z"
             style="fill:#35414f;fill-opacity:1;fill-rule:nonzero;stroke:none"
             id="path88"
             inkscape:connector-curvature="0" /></g><g
           id="g90"
           transform="translate(370.8198,251.0654)"><path
             d="m 0,0 -1.366,-6.407 9.27,0 c 2.256,0 3.337,0.683 3.78,2.778 0.095,0.465 0.382,1.816 0.763,3.629 L 0,0 Z"
             style="fill:#35414f;fill-opacity:1;fill-rule:nonzero;stroke:none"
             id="path92"
             inkscape:connector-curvature="0" /></g><g
           id="g94"
           transform="translate(421.645,241.3066)"><path
             d="m 0,0 -5.285,-24.827 9.268,0 c 2.256,0 3.337,0.682 3.78,2.778 C 8.204,-19.957 12.415,0 12.415,0 L 0,0 Z"
             style="fill:#35414f;fill-opacity:1;fill-rule:nonzero;stroke:none"
             id="path96"
             inkscape:connector-curvature="0" /></g><g
           id="g98"
           transform="translate(423.689,251.0654)"><path
             d="m 0,0 -1.363,-6.407 9.268,0 c 2.255,0 3.336,0.683 3.779,2.778 0.096,0.465 0.382,1.816 0.763,3.629 L 0,0 Z"
             style="fill:#35414f;fill-opacity:1;fill-rule:nonzero;stroke:none"
             id="path100"
             inkscape:connector-curvature="0" /></g><g
           id="g102"
           transform="translate(259.5933,255.8594)"><path
             d="m 0,0 -52.92,0 -2.61,-9.105 14.56,0 -8.68,-30.275 C -38.959,-20.538 -20.267,-6.582 0,0"
             style="fill:#35414f;fill-opacity:1;fill-rule:nonzero;stroke:none"
             id="path104"
             inkscape:connector-curvature="0" /></g><g
           id="g106"
           transform="translate(256.9146,253.2109)"><path
             d="m 0,0 c -14.518,-8.775 -22.476,-22.344 -27.127,-36.731 l -13.46,0 C -33.424,-20.421 -16.667,-5.833 0,0"
             style="fill:#d80d19;fill-opacity:1;fill-rule:nonzero;stroke:none"
             id="path108"
             inkscape:connector-curvature="0" /></g><g
           id="g110"
           transform="translate(345.9019,218.4922)"><path
             d="m 0,0 c 4.768,7.366 21.163,32.706 21.163,32.706 l -13.43,0 L -3.449,15.424 0,0 Z"
             style="fill:#35414f;fill-opacity:1;fill-rule:nonzero;stroke:none"
             id="path112"
             inkscape:connector-curvature="0" /></g><g
           id="g114"
           transform="translate(333.7212,251.0654)"><path
             d="m 0,0 -10.842,0 7.733,-34.586 11.505,0 1.872,0 c 0,0 -6.793,30.384 -7.155,32.001 C 2.704,-0.754 1.375,0 0,0"
             style="fill:#35414f;fill-opacity:1;fill-rule:nonzero;stroke:none"
             id="path116"
             inkscape:connector-curvature="0" /></g><g
           id="g118"
           transform="translate(319.7837,251.0654)"><path
             d="M 0,0 6.167,0 C 6.167,0 4.472,-6.153 3.894,-3.567 3.315,-0.981 0,0 0,0"
             style="fill:#35414f;fill-opacity:1;fill-rule:nonzero;stroke:none"
             id="path120"
             inkscape:connector-curvature="0" /></g><g
           id="g122"
           transform="translate(351.0757,251.1982)"><path
             d="m 0,0 4.735,0 c 0,0 -5.631,-5.34 -4.249,-3.204 C 1.868,-1.068 0,0 0,0"
             style="fill:#35414f;fill-opacity:1;fill-rule:nonzero;stroke:none"
             id="path124"
             inkscape:connector-curvature="0" /></g></g></g></g></svg>